<?xml version="1.0" encoding="UTF-8"?>
<svg xmlns="http://www.w3.org/2000/svg" width="102" height="94" viewBox="0 0 102 94" fill="none">
  <g opacity="0.94">
    <path d="M75.5411 35.7265L83.8744 21.5399C84.0979 21.1496 84.1561 20.6883 84.0364 20.2561C83.9167 19.8238 83.6288 19.4553 83.235 19.2304C82.8412 19.0054 82.3732 18.9421 81.9323 19.0541C81.4914 19.1662 81.1131 19.4445 80.8792 19.829L72.4493 34.1819C65.7202 31.2058 58.4262 29.6669 51.0483 29.6669C43.6705 29.6669 36.3764 31.2058 29.6473 34.1819L21.2174 19.829C20.9836 19.4445 20.6053 19.1662 20.1643 19.0541C19.7234 18.9421 19.2554 19.0054 18.8616 19.2304C18.4678 19.4553 18.1799 19.8238 18.0602 20.2561C17.9406 20.6883 17.9988 21.1496 18.2222 21.5399L26.5556 35.7265C12.1836 43.3783 2.42512 57.6124 1 74.413H101C99.5749 57.6124 89.7923 43.3783 75.5411 35.7265ZM28.0048 60.3927C27.1831 60.3927 26.3799 60.153 25.6967 59.7039C25.0134 59.2548 24.4809 58.6164 24.1665 57.8696C23.852 57.1227 23.7698 56.3009 23.9301 55.5081C24.0904 54.7152 24.4861 53.9869 25.0671 53.4153C25.6481 52.8437 26.3884 52.4544 27.1943 52.2967C28.0002 52.139 28.8356 52.22 29.5947 52.5293C30.3539 52.8387 31.0027 53.3625 31.4592 54.0347C31.9158 54.7068 32.1594 55.4971 32.1594 56.3055C32.1594 57.3895 31.7217 58.4291 30.9426 59.1956C30.1634 59.9621 29.1067 60.3927 28.0048 60.3927ZM74.0435 60.3927C73.2218 60.3927 72.4185 60.153 71.7353 59.7039C71.0521 59.2548 70.5196 58.6164 70.2051 57.8696C69.8907 57.1227 69.8084 56.3009 69.9687 55.5081C70.129 54.7152 70.5247 53.9869 71.1057 53.4153C71.6868 52.8437 72.4271 52.4544 73.233 52.2967C74.0389 52.139 74.8742 52.22 75.6334 52.5293C76.3925 52.8387 77.0414 53.3625 77.4979 54.0347C77.9544 54.7068 78.1981 55.4971 78.1981 56.3055C78.1981 57.3895 77.7604 58.4291 76.9812 59.1956C76.2021 59.9621 75.1453 60.3927 74.0435 60.3927Z" fill="#9AE468"></path>
  </g>
</svg>
