<?xml version="1.0" standalone="no"?>
<!DOCTYPE svg PUBLIC "-//W3C//DTD SVG 20010904//EN"
 "http://www.w3.org/TR/2001/REC-SVG-20010904/DTD/svg10.dtd">
<svg version="1.0" xmlns="http://www.w3.org/2000/svg"
 width="146.000000pt" height="56.000000pt" viewBox="0 0 146.000000 56.000000"
 preserveAspectRatio="xMidYMid meet">

<g transform="translate(0.000000,56.000000) scale(0.100000,-0.100000)"
fill="#000000" stroke="none">
<path d="M90 388 l0 -143 -20 44 c-11 24 -20 48 -20 55 0 25 -22 86 -30 86 -6
0 -10 -24 -10 -52 0 -92 69 -180 112 -142 56 52 64 160 18 242 -17 28 -35 52
-40 52 -6 0 -10 -56 -10 -142z"/>
<path d="M382 500 c-98 -60 -94 -201 8 -252 130 -66 263 70 196 200 -35 68
-135 94 -204 52z m46 -76 c12 -8 22 -24 22 -35 0 -16 -7 -19 -40 -19 -22 0
-40 -5 -40 -10 0 -18 31 -24 52 -11 25 15 35 7 18 -14 -15 -18 -61 -20 -78 -3
-21 21 -15 75 10 92 12 9 25 16 28 16 3 0 16 -7 28 -16z m67 -4 c17 -19 18
-19 35 3 25 30 36 15 14 -18 -16 -25 -16 -27 5 -56 17 -22 18 -29 7 -29 -8 0
-22 10 -30 21 l-14 21 -14 -21 c-7 -11 -19 -21 -27 -21 -11 0 -10 5 3 25 20
30 20 49 1 65 -16 14 -20 30 -7 30 5 0 17 -9 27 -20z"/>
<path d="M380 405 c-11 -13 -8 -15 20 -15 28 0 31 2 20 15 -7 8 -16 15 -20 15
-4 0 -13 -7 -20 -15z"/>
<path d="M1330 440 c0 -23 -5 -30 -19 -30 -25 0 -44 -25 -36 -49 8 -25 38 -35
65 -21 16 9 20 21 20 64 0 39 -4 55 -15 60 -11 4 -15 -2 -15 -24z m-5 -80 c-5
-8 -11 -8 -17 -2 -6 6 -7 16 -3 22 5 8 11 8 17 2 6 -6 7 -16 3 -22z"/>
<path d="M1088 406 c-21 -15 -25 -70 -5 -64 6 3 13 15 15 27 4 27 26 22 30 -7
5 -31 22 -27 22 4 0 23 -23 53 -40 53 -3 0 -13 -6 -22 -13z"/>
<path d="M1397 405 c-37 -26 -16 -76 31 -75 14 1 12 4 -6 20 -13 11 -21 24
-17 30 5 8 11 8 20 0 14 -12 35 -6 35 9 0 17 -46 29 -63 16z"/>
<path d="M1242 370 c0 -14 2 -19 5 -12 2 6 2 18 0 25 -3 6 -5 1 -5 -13z"/>
<path d="M1180 355 c0 -8 4 -15 10 -15 5 0 7 7 4 15 -4 8 -8 15 -10 15 -2 0
-4 -7 -4 -15z"/>
<path d="M418 128 c16 -16 16 -115 0 -122 -7 -3 14 -4 47 -3 49 2 60 5 63 20
4 18 3 18 -22 2 -31 -20 -56 -14 -56 15 0 25 25 37 45 20 12 -10 15 -10 15 3
0 8 3 29 6 46 l7 31 -59 0 c-45 0 -55 -3 -46 -12z m92 -12 c0 -20 -16 -36 -36
-36 -17 0 -24 6 -24 20 0 16 7 20 30 20 17 0 30 -2 30 -4z"/>
</g>
</svg>
