<?xml version="1.0" encoding="UTF-8"?>
<svg xmlns="http://www.w3.org/2000/svg" width="55" height="34" viewBox="0 0 55 34" fill="none">
  <g clip-path="url(#clip0_1547_13669)">
    <path d="M27.1896 33.6333C27.0034 33.6333 26.8296 33.5836 26.6682 33.4967L25.0169 32.5159C24.7686 32.3793 24.8928 32.3296 24.9673 32.3048C25.3025 32.1931 25.3646 32.1682 25.7122 31.9696C25.7494 31.9448 25.7991 31.9572 25.8363 31.982L27.1027 32.7393C27.1524 32.7642 27.2145 32.7642 27.2517 32.7393L32.2054 29.8714C32.2551 29.8466 32.2799 29.7969 32.2799 29.7348V24.0114C32.2799 23.9493 32.2551 23.8996 32.2054 23.8748L27.2517 21.0193C27.202 20.9944 27.14 20.9944 27.1027 21.0193L22.149 23.8748C22.0993 23.8996 22.0745 23.9617 22.0745 24.0114V29.7348C22.0745 29.7845 22.0993 29.8466 22.149 29.8714L23.5023 30.6536C24.2348 31.026 24.6941 30.5915 24.6941 30.157V24.508C24.6941 24.4335 24.7562 24.359 24.8431 24.359H25.4763C25.5508 24.359 25.6253 24.4211 25.6253 24.508V30.157C25.6253 31.1378 25.0914 31.7089 24.1603 31.7089C23.8747 31.7089 23.6512 31.7089 23.0181 31.3985L21.7145 30.6536C21.3917 30.4673 21.193 30.1197 21.193 29.7472V24.0238C21.193 23.6513 21.3917 23.3037 21.7145 23.1174L26.6682 20.2495C26.9786 20.0757 27.4007 20.0757 27.7111 20.2495L32.6648 23.1174C32.9876 23.3037 33.1862 23.6513 33.1862 24.0238V29.7472C33.1862 30.1197 32.9876 30.4673 32.6648 30.6536L27.7111 33.5215C27.5497 33.596 27.3634 33.6333 27.1896 33.6333ZM28.7167 29.6976C26.544 29.6976 26.0971 28.7044 26.0971 27.8601C26.0971 27.7856 26.1591 27.7111 26.2461 27.7111H26.8917C26.9661 27.7111 27.0282 27.7608 27.0282 27.8353C27.1275 28.4933 27.4131 28.8161 28.7291 28.8161C29.772 28.8161 30.219 28.5802 30.219 28.0215C30.219 27.6987 30.0948 27.4628 28.4684 27.3014C27.1151 27.1649 26.2709 26.8669 26.2709 25.7867C26.2709 24.7811 27.1151 24.1852 28.5305 24.1852C30.1196 24.1852 30.9018 24.7314 31.0011 25.9233C31.0011 25.9606 30.9887 25.9978 30.9639 26.0351C30.9391 26.0599 30.9018 26.0847 30.8646 26.0847H30.219C30.1569 26.0847 30.0948 26.0351 30.0824 25.973C29.9334 25.2901 29.5485 25.0667 28.5305 25.0667C27.3883 25.0667 27.2517 25.4639 27.2517 25.7619C27.2517 26.122 27.4131 26.2337 28.9526 26.4323C30.4797 26.631 31.1998 26.9165 31.1998 27.9843C31.1874 29.0768 30.2935 29.6976 28.7167 29.6976Z" fill="#539E43"></path>
    <path d="M11.8194 11.2482C11.8194 11.0247 11.6953 10.8137 11.4966 10.7019L6.23251 7.6726C6.1456 7.62294 6.04628 7.59811 5.94696 7.58569H5.89729C5.79797 7.58569 5.69865 7.62294 5.61174 7.6726L0.347633 10.7019C0.148987 10.8137 0.0248337 11.0247 0.0248337 11.2482L0.037249 19.3927C0.037249 19.5044 0.0993258 19.6162 0.198649 19.6658C0.297971 19.7279 0.422125 19.7279 0.509032 19.6658L3.6377 17.878C3.83635 17.7663 3.9605 17.5552 3.9605 17.3317V13.5202C3.9605 13.2968 4.08465 13.0857 4.2833 12.974L5.61174 12.2042C5.71106 12.1421 5.8228 12.1173 5.93454 12.1173C6.04628 12.1173 6.15802 12.1421 6.24492 12.2042L7.57337 12.974C7.77201 13.0857 7.89617 13.2968 7.89617 13.5202V17.3317C7.89617 17.5552 8.02032 17.7663 8.21897 17.878L11.3476 19.6658C11.447 19.7279 11.5711 19.7279 11.6704 19.6658C11.7698 19.6162 11.8318 19.5044 11.8318 19.3927L11.8194 11.2482Z" fill="#333333"></path>
    <path d="M37.1219 0.037246C37.0226 -0.0124153 36.8984 -0.0124153 36.8115 0.037246C36.7122 0.0993228 36.6501 0.198646 36.6501 0.310384V8.38036C36.6501 8.45485 36.6129 8.52934 36.5384 8.57901C36.4639 8.61625 36.3894 8.61625 36.3149 8.57901L34.9989 7.82167C34.8002 7.70993 34.5643 7.70993 34.3657 7.82167L29.1016 10.8634C28.9029 10.9752 28.7788 11.1862 28.7788 11.4097V17.4808C28.7788 17.7043 28.9029 17.9153 29.1016 18.0271L34.3657 21.0688C34.5643 21.1806 34.8002 21.1806 34.9989 21.0688L40.263 18.0271C40.4616 17.9153 40.5858 17.7043 40.5858 17.4808V2.3465C40.5858 2.11061 40.4616 1.89955 40.263 1.78781L37.1219 0.037246ZM36.6377 15.4819C36.6377 15.544 36.6129 15.5937 36.5632 15.6185L34.763 16.6614C34.7133 16.6862 34.6512 16.6862 34.6016 16.6614L32.8014 15.6185C32.7517 15.5937 32.7269 15.5316 32.7269 15.4819V13.3962C32.7269 13.3341 32.7517 13.2844 32.8014 13.2596L34.6016 12.2167C34.6512 12.1919 34.7133 12.1919 34.763 12.2167L36.5632 13.2596C36.6129 13.2844 36.6377 13.3465 36.6377 13.3962V15.4819Z" fill="#333333"></path>
    <path d="M54.64 13.3465C54.8386 13.2347 54.9503 13.0237 54.9503 12.8002V11.3228C54.9503 11.0993 54.8262 10.8882 54.64 10.7765L49.4131 7.74713C49.2144 7.6354 48.9786 7.6354 48.7799 7.74713L43.5158 10.7889C43.3172 10.9006 43.193 11.1117 43.193 11.3352V17.4063C43.193 17.6298 43.3172 17.8408 43.5158 17.9526L48.7427 20.9322C48.9413 21.044 49.1772 21.044 49.3634 20.9322L52.5293 19.1693C52.6287 19.1196 52.6907 19.0079 52.6907 18.8961C52.6907 18.7844 52.6287 18.6726 52.5293 18.623L47.2404 15.5812C47.1411 15.5191 47.079 15.4198 47.079 15.3081V13.4085C47.079 13.2968 47.1411 13.1851 47.2404 13.1354L48.8917 12.1918C48.991 12.1298 49.1151 12.1298 49.2144 12.1918L50.8657 13.1354C50.965 13.1975 51.0271 13.2968 51.0271 13.4085V14.8984C51.0271 15.0101 51.0892 15.1219 51.1885 15.1715C51.2878 15.2336 51.412 15.2336 51.5113 15.1715L54.64 13.3465Z" fill="#333333"></path>
    <path d="M49.0158 13.0609C49.0531 13.036 49.1027 13.036 49.14 13.0609L50.1456 13.6444C50.1828 13.6692 50.2077 13.7065 50.2077 13.7561V14.9232C50.2077 14.9728 50.1828 15.0101 50.1456 15.0349L49.14 15.6184C49.1027 15.6433 49.0531 15.6433 49.0158 15.6184L48.0102 15.0349C47.9729 15.0101 47.9481 14.9728 47.9481 14.9232V13.7561C47.9481 13.7065 47.9729 13.6692 48.0102 13.6444L49.0158 13.0609Z" fill="#539E43"></path>
    <path d="M20.6219 7.77204C20.4233 7.6603 20.1874 7.6603 19.9887 7.77204L14.7619 10.789C14.5632 10.9007 14.4515 11.1118 14.4515 11.3352V17.3815C14.4515 17.605 14.5756 17.8161 14.7619 17.9278L19.9887 20.9447C20.1874 21.0565 20.4233 21.0565 20.6219 20.9447L25.8488 17.9278C26.0474 17.8161 26.1591 17.605 26.1591 17.3815V11.3352C26.1591 11.1118 26.035 10.9007 25.8488 10.789L20.6219 7.77204Z" fill="url(#paint0_linear_1547_13669)"></path>
  </g>
  <defs>
    <linearGradient id="paint0_linear_1547_13669" x1="812.78" y1="240.968" x2="239.843" y2="1141.18" gradientUnits="userSpaceOnUse">
      <stop stop-color="#41873F"></stop>
      <stop offset="0.3288" stop-color="#418B3D"></stop>
      <stop offset="0.6352" stop-color="#419637"></stop>
      <stop offset="0.9319" stop-color="#3FA92D"></stop>
      <stop offset="1" stop-color="#3FAE2A"></stop>
    </linearGradient>
    <clipPath id="clip0_1547_13669">
      <rect width="55" height="33.7305" fill="white"></rect>
    </clipPath>
  </defs>
</svg>
