<?xml version="1.0" encoding="UTF-8"?>
<svg xmlns="http://www.w3.org/2000/svg" width="181" height="161" viewBox="0 0 181 161" fill="none">
  <g clip-path="url(#clip0_1566_14166)">
    <path d="M90.1597 96.3288C99.036 96.3288 106.232 89.1526 106.232 80.3003C106.232 71.448 99.036 64.2717 90.1597 64.2717C81.2835 64.2717 74.0879 71.448 74.0879 80.3003C74.0879 89.1526 81.2835 96.3288 90.1597 96.3288Z" fill="#61DAFB"></path>
    <path d="M90.1592 113.139C137.788 113.139 176.398 98.4364 176.398 80.2999C176.398 62.1635 137.788 47.4609 90.1592 47.4609C42.5305 47.4609 3.91992 62.1635 3.91992 80.2999C3.91992 98.4364 42.5305 113.139 90.1592 113.139Z" stroke="#61DAFB" stroke-width="6"></path>
    <path d="M61.6438 96.7197C85.4581 137.856 117.531 163.853 133.28 154.784C149.029 145.716 142.491 105.017 118.676 63.8808C94.862 22.7443 62.7895 -3.25214 47.0404 5.8161C31.2913 14.8843 37.8295 55.5833 61.6438 96.7197Z" stroke="#61DAFB" stroke-width="6"></path>
    <path d="M61.6428 63.88C37.8285 105.016 31.2904 145.715 47.0394 154.784C62.7885 163.852 94.861 137.855 118.675 96.719C142.49 55.5826 149.028 14.8836 133.279 5.81537C117.53 -3.25287 85.4571 22.7436 61.6428 63.88Z" stroke="#61DAFB" stroke-width="6"></path>
  </g>
  <defs>
    <clipPath id="clip0_1566_14166">
      <rect width="180.318" height="160" fill="white" transform="translate(0 0.300781)"></rect>
    </clipPath>
  </defs>
</svg>
